<svg version="1.1" viewBox="0 0 1157.4 260.74" xml:space="preserve" xmlns="http://www.w3.org/2000/svg" xmlns:xlink="http://www.w3.org/1999/xlink"><defs><linearGradient id="linearGradient1115" x2="1" gradientTransform="matrix(-885.03 0 0 -885.03 1276.4 1061.4)" gradientUnits="userSpaceOnUse"><stop stop-color="#ff5f6d" offset="0"/><stop stop-color="#ff9d6f" offset="1"/></linearGradient></defs><g transform="matrix(1.3333 0 0 -1.3333 -533.11 1544.3)"><path d="m445.97 1145.2c-14.291-8.64-25.553-20.345-33.788-35.118-8.233-14.775-12.351-31.043-12.351-48.804 0-17.921 4.118-34.311 12.351-49.165 8.235-14.857 19.497-26.563 33.788-35.119 14.289-8.559 30.07-12.837 47.349-12.837 22.119 0 41.899 7.025 59.338 21.072 2.58 2.581 3.874 5.57 3.874 8.961 0 3.551-1.01 6.418-3.028 8.598-2.02 2.18-4.564 3.27-7.628 3.27-2.585 0-5.249-0.969-7.992-2.906-14.21-10.657-29.064-15.985-44.564-15.985-12.595 0-24.183 3.307-34.756 9.93-10.577 6.619-18.974 15.58-25.189 26.883-6.217 11.3-9.323 23.736-9.323 37.298 0 13.401 3.106 25.795 9.323 37.178 6.215 11.384 14.612 20.383 25.189 27.005 10.573 6.619 22.161 9.93 34.756 9.93 10.009 0 18.164-1.252 24.462-3.755 6.297-2.505 12.753-6.58 19.375-12.229 2.58-2.102 5.408-3.149 8.477-3.149 3.065 0 5.771 1.047 8.113 3.149 2.339 2.096 3.512 4.76 3.512 7.992 0 2.096-0.326 3.912-0.968 5.448-0.648 1.533-1.938 3.028-3.877 4.481-9.202 7.425-18.284 12.754-27.247 15.985-8.96 3.228-19.579 4.844-31.847 4.844-17.279 0-33.06-4.321-47.349-12.957m636.12 7.145c-2.263-2.263-3.392-5.171-3.392-8.719v-132.24c0-8.56 1.532-16.27 4.602-23.13 3.065-6.865 7.386-12.193 12.957-15.986 5.57-3.795 11.826-5.691 18.77-5.691h0.485c4.844 0 8.799 1.127 11.867 3.392 3.066 2.258 4.602 5.165 4.602 8.718 0 3.549-1.011 6.456-3.028 8.719-2.02 2.259-4.642 3.39-7.871 3.39h-6.055c-3.553 0-6.459 1.938-8.718 5.813-2.263 3.875-3.392 8.799-3.392 14.775v132.24c0 3.548-1.131 6.456-3.39 8.719-2.263 2.259-5.17 3.391-8.719 3.391-3.554 0-6.46-1.132-8.718-3.391m-63.332 0c-2.342-2.263-3.512-5.249-3.512-8.962v-65.393c-5.654 6.94-12.515 12.352-20.586 16.228-8.077 3.875-16.795 5.812-26.158 5.812-11.626 0-22.161-2.906-31.607-8.719-9.445-5.813-16.874-13.847-22.282-24.099-5.411-10.255-8.113-21.676-8.113-34.27s2.906-24.019 8.718-34.271c5.814-10.255 13.844-18.327 24.1-24.22 10.251-5.896 21.593-8.84 34.028-8.84 12.431 0 23.694 2.944 33.786 8.84 2.882 1.684 5.574 3.566 8.114 5.605v-5.104c0-3.712 1.17-6.699 3.512-8.961 2.339-2.259 5.286-3.391 8.84-3.391 3.712 0 6.698 1.132 8.961 3.391 2.259 2.262 3.391 5.249 3.391 8.961v168.43c0 3.713-1.132 6.699-3.391 8.962-2.263 2.259-5.249 3.391-8.961 3.391-3.554 0-6.501-1.132-8.84-3.391m-67.33-159c-6.541 3.955-11.709 9.405-15.501 16.349-3.796 6.941-5.692 14.691-5.692 23.251 0 8.555 1.896 16.265 5.692 23.129 3.792 6.861 8.96 12.27 15.501 16.227 6.538 3.955 13.842 5.934 21.918 5.934 8.072 0 15.38-1.979 21.919-5.934 6.539-3.957 11.663-9.366 15.38-16.227 3.712-6.864 5.569-14.574 5.569-23.129 0-8.56-1.857-16.31-5.569-23.251-3.717-6.944-8.841-12.394-15.38-16.349-6.539-3.958-13.847-5.933-21.919-5.933-8.076 0-15.38 1.975-21.918 5.933m-137.85 106.92c-0.138 0-0.273 0.01-0.41 0.01-11.141 0-21.151-2.422-30.032-7.266-8.879-4.844-15.823-11.91-20.83-21.192-5.003-9.288-7.507-20.466-7.507-33.545v-59.58c0-3.553 1.172-6.502 3.511-8.84 2.343-2.343 5.291-3.512 8.84-3.512 3.553 0 6.503 1.169 8.841 3.512 2.343 2.338 3.512 5.287 3.512 8.84v59.58c0 13.079 3.511 22.967 10.535 29.669 5.648 5.386 12.81 8.571 21.434 9.627 0.032 0 0.065 0.01 0.099 0.011 0.657 0.08 1.333 0.132 2.005 0.191 0.516-0.045 1.037-0.08 1.545-0.136 1.748-0.09 3.375-0.358 4.872-0.797 6.72-1.491 12.444-4.434 17.122-8.896 7.024-6.702 10.537-16.59 10.537-29.669v-59.58c0-3.553 1.169-6.502 3.511-8.84 2.339-2.343 5.287-3.512 8.841-3.512 3.549 0 6.497 1.169 8.84 3.512 2.339 2.338 3.511 5.287 3.511 8.84v59.58c0 13.079-2.505 24.257-7.507 33.545-5.008 9.282-11.951 16.348-20.83 21.192-8.881 4.844-18.891 7.266-30.032 7.266-0.138 0-0.272-0.01-0.408-0.01m360.18-8.832c-9.93-5.733-17.68-13.725-23.25-23.978-5.571-10.255-8.357-21.838-8.357-34.755 0-12.919 2.945-24.46 8.84-34.633 5.893-10.173 14.086-18.128 24.583-23.857 10.494-5.733 22.363-8.598 35.603-8.598 7.425 0 15.217 1.371 23.373 4.118 8.151 2.743 14.974 6.297 20.465 10.655 2.581 1.938 3.874 4.361 3.874 7.267 0 3.065-1.452 5.812-4.359 8.235-1.778 1.612-4.201 2.422-7.265 2.422-3.069 0-5.734-0.889-7.992-2.665-3.391-2.585-7.713-4.764-12.958-6.538-5.248-1.78-10.294-2.665-15.138-2.665-12.272 0-22.645 3.471-31.122 10.414-8.477 6.941-13.605 16.066-15.38 27.369h92.036c3.228 0 5.891 1.006 7.992 3.027 2.096 2.017 3.148 4.56 3.148 7.629 0 12.754-2.421 24.057-7.265 33.908-4.844 9.846-11.789 17.518-20.83 23.008-9.044 5.488-19.78 8.235-32.212 8.235-12.593 0-23.856-2.869-33.786-8.598m5.086-21.919c7.345 6.457 16.913 9.688 28.7 9.688 10.657 0 19.293-3.231 25.916-9.688 6.618-6.459 10.656-15.1 12.11-25.914h-80.652c1.938 10.814 6.577 19.455 13.926 25.914m-568.18 21.678c-10.255-5.896-18.285-13.969-24.099-24.22-5.812-10.257-8.718-21.677-8.718-34.272 0-12.594 2.702-24.019 8.113-34.27 5.407-10.256 12.836-18.286 22.282-24.099 9.447-5.813 19.981-8.719 31.607-8.719 9.362 0 18.082 1.938 26.157 5.813 8.072 3.875 14.932 9.283 20.586 16.227v-8.961c0-3.553 1.17-6.502 3.513-8.84 2.338-2.343 5.286-3.512 8.839-3.512 3.551 0 6.498 1.169 8.84 3.512 2.339 2.338 3.513 5.287 3.513 8.84v54.009c0 12.595-2.948 24.015-8.84 34.272-5.896 10.251-13.889 18.324-23.978 24.22-10.093 5.891-21.355 8.839-33.786 8.839-12.435 0-23.777-2.948-34.029-8.839m12.111-97.849c-6.541 3.955-11.709 9.363-15.502 16.228-3.795 6.86-5.691 14.569-5.691 23.129 0 8.557 1.896 16.307 5.691 23.251 3.793 6.941 8.961 12.391 15.502 16.348 6.538 3.955 13.842 5.934 21.918 5.934 8.073 0 15.38-1.979 21.918-5.934 6.54-3.957 11.664-9.407 15.38-16.348 3.713-6.944 5.57-14.694 5.57-23.251 0-8.56-1.857-16.269-5.57-23.129-3.716-6.865-8.84-12.273-15.38-16.228-6.538-3.958-13.845-5.933-21.918-5.933-8.076 0-15.38 1.975-21.918 5.933" fill="url(#linearGradient1115)"/></g></svg>
